<svg xmlns="http://www.w3.org/2000/svg" viewBox="0 0 800 40" width="800" height="40">
  <polyline fill="none" stroke="#00FF41" stroke-width="2" points="0,20 40,20 60,5 80,35 100,20 140,20 160,10 180,30 200,20 240,20 260,2 280,38 300,20 340,20 360,12 380,28 400,20 440,20 460,8 480,32 500,20 540,20 560,15 580,25 600,20 640,20 660,5 680,35 700,20 740,20 760,18 780,22 800,20">
    <animate attributeName="stroke-dasharray" values="0 800;800 0;0 800" dur="4s" repeatCount="indefinite"/>
    <animate attributeName="stroke" values="#00FF41;#FF00FF;#FFE600;#00FF41" dur="5s" repeatCount="indefinite"/>
  </polyline>
</svg>
